<svg xmlns="http://www.w3.org/2000/svg" xmlns:xlink="http://www.w3.org/1999/xlink"><symbol id="burger" viewBox="0 0 24 14">
<path d="M0 1H24M0 7H24M0 13H24" stroke="#F9FBFD" stroke-width="2"/>
</symbol><symbol id="close" viewBox="0 0 15 15">
<path d="M1 1L7.5 7.5M14 14L7.5 7.5M7.5 7.5L14 1L1 14" stroke="#011C40" stroke-width="2"/>
</symbol><symbol id="icon-close" viewBox="0 0 20 20"><path d="M.293 18.291a1 1 0 101.414 1.414L10 11.413l8.292 8.292a1 1 0 101.414-1.414l-8.292-8.292 8.292-8.292A1 1 0 1018.291.293L9.999 8.585 1.707.293A1 1 0 10.293 1.707L8.585 10 .293 18.291z"/></symbol><symbol id="icon-ins" viewBox="0 0 17 16">
  <path d="M16.0624 7.64569H16.0663C16.1663 7.64569 16.2616 7.60482 16.3293 7.53321C16.3981 7.46056 16.4322 7.36311 16.4232 7.26461C16.0634 3.4074 12.9305 0.352511 8.97314 0.00112562C8.87281 -0.00655875 8.77176 0.0252267 8.69723 0.0926396C8.62269 0.159703 8.58113 0.254361 8.5822 0.35321C8.64455 5.47939 9.33828 7.57408 16.0624 7.64569ZM16.0624 8.35404C9.33828 8.42565 8.64491 10.5203 8.58256 15.6465C8.58149 15.7454 8.62305 15.84 8.69758 15.9071C8.76423 15.9668 8.85131 16 8.94089 16C8.95164 16 8.96275 15.9997 8.9735 15.9986C12.9309 15.6472 16.0638 12.5927 16.4232 8.73512C16.4322 8.63662 16.3985 8.53917 16.3293 8.46652C16.2602 8.39386 16.1638 8.35789 16.0624 8.35404ZM7.43698 0.00287211C3.49211 0.364387 0.369261 3.41858 0.011289 7.26531C0.00233071 7.36381 0.0360138 7.46126 0.105172 7.53391C0.172896 7.60552 0.26857 7.64603 0.368186 7.64603H0.372486C7.07435 7.57094 7.76628 5.47729 7.82935 0.354607C7.83042 0.255758 7.7885 0.160751 7.71397 0.0936875C7.63872 0.0266238 7.53803 -0.00620942 7.43698 0.00287211ZM0.372128 8.3537C0.260687 8.34147 0.173255 8.39317 0.104813 8.46582C0.0360139 8.53847 0.0019724 8.63592 0.0109307 8.73442C0.368903 12.5812 3.49211 15.6353 7.43698 15.9969C7.44809 15.9979 7.45955 15.9983 7.47066 15.9983C7.56024 15.9983 7.64696 15.9654 7.71361 15.9057C7.78814 15.8386 7.83007 15.7436 7.82899 15.6448C7.76592 10.5224 7.07435 8.42879 0.372128 8.3537Z"/>
</symbol><symbol id="icon-link" viewBox="0 0 17 16">
  <path d="M10.3891 0C9.86274 0 9.36878 0.260274 9.05196 0.635616C8.73513 1.01096 8.5605 1.46849 8.43327 1.95069C8.2312 2.72603 8.16883 3.5863 8.15386 4.36164C6.6745 4.45753 5.33485 4.88493 4.22221 5.54521C3.77067 5.17534 3.22682 4.96986 2.70543 4.97534C2.11169 4.98082 1.54788 5.23014 1.12877 5.74247C0.327973 6.72055 0.420277 8.32055 1.34831 9.27123C1.29093 9.56438 1.24852 9.86575 1.24852 10.1699C1.24852 13.3918 4.62635 16 8.79251 16C12.9587 16 16.3365 13.389 16.3365 10.1699C16.3365 9.86575 16.2941 9.56438 16.2367 9.27123C17.1647 8.32055 17.257 6.72055 16.4562 5.74247C16.0371 5.23014 15.4733 4.98082 14.8796 4.97534C14.3582 4.96986 13.8144 5.17534 13.3628 5.54521C12.2552 4.88767 10.923 4.46027 9.45111 4.36164C9.47107 3.64658 9.52346 2.90411 9.67064 2.34521C9.76295 1.99452 9.87271 1.73973 9.98997 1.6C10.1072 1.46027 10.192 1.40274 10.3891 1.40274C10.8157 1.40274 10.8706 1.53699 11.1276 1.86301C11.2573 2.0274 11.407 2.23288 11.6465 2.43288C11.8859 2.63288 12.2402 2.80548 12.6244 2.80548V1.40274C12.5171 1.40274 12.4971 1.4 12.4248 1.33699C12.3525 1.27397 12.2527 1.12877 12.1055 0.942466C11.8111 0.567123 11.2398 0 10.3891 0ZM14.5403 0.131507C13.5474 0.131507 12.7441 1.0137 12.7441 2.10411C12.7441 3.19452 13.5474 4.07671 14.5403 4.07671C15.5332 4.07671 16.3365 3.19452 16.3365 2.10411C16.3365 1.0137 15.5332 0.131507 14.5403 0.131507ZM14.5403 0.832877C15.179 0.832877 15.6979 1.40274 15.6979 2.10411C15.6979 2.80548 15.179 3.37534 14.5403 3.37534C13.9017 3.37534 13.3828 2.80548 13.3828 2.10411C13.3828 1.40274 13.9017 0.832877 14.5403 0.832877ZM8.79251 5.45753C12.3275 5.45753 15.3187 7.61918 15.3187 10.1699C15.3187 12.7233 12.3275 14.8822 8.79251 14.8822C5.25751 14.8822 2.26636 12.7233 2.26636 10.1699C2.26636 7.61918 5.25751 5.45753 8.79251 5.45753ZM2.72538 6.09315C2.90251 6.09589 3.08712 6.13973 3.26424 6.22466C2.6231 6.7589 2.11418 7.3726 1.76742 8.06575C1.52793 7.52329 1.59279 6.84658 1.88716 6.48767C2.10171 6.22466 2.39858 6.09041 2.72538 6.09315ZM14.8596 6.09315C15.1864 6.09041 15.4833 6.22466 15.6979 6.48767C15.9922 6.84658 16.0571 7.52329 15.8176 8.06575C15.4708 7.3726 14.9619 6.7589 14.3208 6.22466C14.4979 6.13973 14.6825 6.09589 14.8596 6.09315ZM6.23793 7.84658C5.59929 7.84658 5.08039 8.41644 5.08039 9.11781C5.08039 9.81918 5.59929 10.389 6.23793 10.389C6.87657 10.389 7.39547 9.81918 7.39547 9.11781C7.39547 8.41644 6.87657 7.84658 6.23793 7.84658ZM11.3471 7.84658C10.7084 7.84658 10.1895 8.41644 10.1895 9.11781C10.1895 9.81918 10.7084 10.389 11.3471 10.389C11.9857 10.389 12.5046 9.81918 12.5046 9.11781C12.5046 8.41644 11.9857 7.84658 11.3471 7.84658ZM5.61924 12.1644C6.02588 13.0877 7.28321 13.9836 8.79251 13.9836C10.3018 13.9836 11.5791 13.0877 11.9857 12.1644C11.2473 12.6877 10.0823 13.0411 8.79251 13.0411C7.50275 13.0411 6.35768 12.6877 5.61924 12.1644Z"/>
</symbol><symbol id="icon-ok" viewBox="0 0 10 16">
  <path d="M4.82193 2.42035C5.80332 2.42035 6.60144 3.18736 6.60144 4.1305C6.60144 5.0708 5.80332 5.83781 4.82193 5.83781C3.84054 5.83781 3.04243 5.0708 3.04243 4.1305C3.04243 3.18736 3.84054 2.42035 4.82193 2.42035ZM4.82193 8.25816C7.19264 8.25816 9.11995 6.40597 9.11995 4.1305C9.11995 1.85219 7.19264 0 4.82193 0C2.45123 0 0.526877 1.85219 0.526877 4.1305C0.526877 6.40597 2.45123 8.25816 4.82193 8.25816ZM6.56006 11.6273C7.43503 11.4342 8.27749 11.1018 9.05491 10.6331C9.64316 10.278 9.82052 9.53083 9.45102 8.96551C9.07856 8.39735 8.30409 8.22691 7.71289 8.58485C5.95408 9.6473 3.68979 9.6473 1.92802 8.58485C1.33978 8.22691 0.56235 8.39735 0.192851 8.96551C-0.176649 9.53083 0.000710447 10.278 0.588953 10.6331C1.36638 11.1018 2.20884 11.4342 3.08381 11.6273L0.680589 13.934C0.189894 14.4056 0.189894 15.1726 0.680589 15.6442C0.928892 15.88 1.24814 15.9993 1.57034 15.9993C1.89255 15.9993 2.21475 15.88 2.46305 15.6442L4.82193 13.3772L7.18377 15.6442C7.67447 16.1186 8.46963 16.1186 8.96328 15.6442C9.45397 15.1726 9.45397 14.4056 8.96328 13.934L6.56006 11.6273Z"/>
</symbol><symbol id="logo" viewBox="0 0 70 38">
  <path fill-rule="evenodd" clip-rule="evenodd" d="M0.903517 31.125L14.6726 12.5429L18.4395 14.556L27.4026 0L32.9879 6.65881L35.0665 4.95532L43.1199 15.1755L48.8355 8.36191L64.8126 31.125L49.42 11.7689L47.0817 19.8984L49.225 26.3249L35.456 7.35558L35.3069 13.8279L43.1199 31.125L28.5064 4.33574L32.7282 18.8145L26.8181 4.72292L23.5706 14.0916L24.2198 7.97472L16.1013 30.0411L17.0753 20.75L13.6981 17.0338L0.903517 31.125Z"/>
  <path fill-rule="evenodd" clip-rule="evenodd" d="M69.4414 34.0314C47.641 16.428 13.7091 40.6289 0 31.2961C15.0723 44.5215 50.3019 22.1644 69.4414 34.0314Z"/>
  <path fill-rule="evenodd" clip-rule="evenodd" d="M70 35.4157C52.8956 24.5171 27.4568 39.6838 14.4189 36.1717C28.5467 43.0283 54.8482 27.8361 70 35.4157Z"/>
</symbol></svg>